<svg xmlns="http://www.w3.org/2000/svg" width="512" height="512" viewBox="0 0 512 512" version="1.1">
	<path d="M 183.489 16.864 C 175.792 19.070, 169.241 22.737, 166.589 26.327 C 163.515 30.487, 163.605 44.727, 166.743 50.653 C 171.437 59.519, 181.506 64.418, 195 64.403 C 203.384 64.394, 207.554 62.748, 214.500 56.705 L 218.500 53.226 224.500 56.225 C 232.564 60.256, 234 61.682, 234 65.655 C 234 68.915, 233.892 69.001, 229.750 69.056 C 222.568 69.152, 218.656 71.018, 217.383 74.956 C 216.670 77.162, 215.405 78.683, 213.883 79.163 C 209.538 80.533, 178.246 85.032, 176.832 84.489 C 176.068 84.196, 174.604 84.569, 173.580 85.318 C 171.120 87.116, 171.963 91.662, 176.091 98.859 C 179.015 103.957, 179.318 104.184, 182.332 103.538 C 187.361 102.460, 206.108 99.031, 210.507 98.384 C 214.365 97.817, 214.636 97.965, 217.816 102.393 C 219.671 104.977, 222.231 107.271, 223.657 107.629 C 227.304 108.544, 243.240 107.477, 245.716 106.152 C 246.867 105.536, 250.890 104.797, 254.655 104.509 C 261.192 104.010, 261.881 104.178, 269.969 108.243 C 274.627 110.584, 278.584 113.007, 278.761 113.626 C 278.939 114.246, 277.490 115.693, 275.542 116.843 C 272.560 118.602, 272 119.485, 272 122.427 C 272 125.693, 274.951 130, 277.189 130 C 277.635 130, 278 130.675, 278 131.500 C 278 132.667, 276.667 133, 272 133 C 266.889 133, 266 132.733, 266 131.200 C 266 126.755, 262.687 126.206, 247.808 128.187 L 238.889 129.375 239.194 132.298 C 239.494 135.161, 239.325 135.272, 231.080 137.653 C 211.848 143.205, 192.883 155.945, 181.365 171.049 C 179.288 173.772, 177.132 176, 176.573 176 C 176.015 176, 171.162 171.514, 165.789 166.031 C 160.415 160.548, 154.683 155.370, 153.049 154.525 C 145.361 150.550, 121.664 147.043, 102.315 147.018 C 86.718 146.998, 83.437 147.720, 82.004 151.490 C 81.053 153.991, 80.962 154.009, 72.632 153.368 C 64.481 152.742, 64.179 152.796, 62.935 155.111 C 62.228 156.425, 61.447 160.964, 61.199 165.198 C 60.765 172.626, 60.653 172.917, 58.015 173.497 C 56.511 173.827, 54.031 175.402, 52.504 176.996 C 50.306 179.290, 49.136 179.777, 46.900 179.330 C 40.432 178.036, 39.481 179.067, 36.627 190.457 C 33.575 202.636, 33.465 204, 35.531 204 C 38.142 204, 38.139 206.313, 35.521 212.756 C 29.687 227.114, 32.263 229.620, 58.360 234.976 C 77.652 238.936, 79.080 238.134, 89.364 217.588 C 93.105 210.115, 96.483 204, 96.870 204 C 97.258 204, 99.808 206.276, 102.538 209.059 C 105.267 211.841, 108.891 214.984, 110.590 216.042 C 113.421 217.804, 117.952 225.381, 116.840 226.493 C 116.580 226.753, 114.968 226.564, 113.257 226.074 C 110.793 225.367, 109.819 225.543, 108.573 226.919 C 106.506 229.204, 106.547 233.612, 108.643 234.417 C 111.845 235.645, 108.781 236.457, 102.106 236.149 C 94.167 235.782, 82.539 239.193, 74.748 244.174 C 68.781 247.988, 62.211 255.247, 59.140 261.418 C 56.967 265.784, 56.569 266.097, 54.140 265.353 C 52.688 264.909, 49.324 264.539, 46.664 264.532 C 42.368 264.521, 41.455 264.927, 38.475 268.179 C 32.322 274.892, 32.775 281.943, 40.059 292.850 L 44.096 298.895 42.977 309.287 C 38.779 348.274, 55.374 388.054, 81.234 400.997 C 88.171 404.469, 90.117 405, 95.906 405 C 104.139 405, 112.482 402.938, 121 398.797 C 128.779 395.016, 140.794 383.376, 146.558 374.037 C 149.662 369.008, 150.771 367.939, 152.441 368.365 C 153.574 368.653, 160.549 370.720, 167.943 372.957 C 175.336 375.193, 188.161 378.402, 196.443 380.087 C 204.724 381.772, 214.200 383.850, 217.500 384.705 C 222.135 385.905, 230.527 386.332, 254.399 386.580 L 285.299 386.901 288.419 383.701 C 290.135 381.940, 292.231 379.419, 293.077 378.098 C 294.556 375.787, 294.677 376.074, 296.242 385.598 C 300.664 412.500, 313.204 436.541, 332.253 454.635 C 348.062 469.652, 359.781 475.252, 386.331 480.476 C 401.043 483.370, 400 483.239, 400 482.199 C 400 481.759, 397.863 480.342, 395.250 479.052 L 390.500 476.705 397 475.027 C 431.832 466.038, 459.977 436.123, 470.461 396.948 C 478.853 365.591, 474.367 324.653, 459.236 294.500 C 449.592 275.282, 434.331 258.271, 420.165 250.950 L 415.831 248.710 418.584 246.515 C 420.237 245.197, 421.109 243.727, 420.768 242.837 C 419.966 240.747, 410.436 237.312, 400.195 235.420 C 385.690 232.741, 387.263 234.121, 382.049 219.500 C 379.500 212.350, 376.565 205.218, 375.527 203.652 C 374.002 201.348, 373.867 200.443, 374.821 198.915 C 376.805 195.738, 376.157 191.974, 372.500 185.434 C 370.575 181.991, 369.003 178.798, 369.007 178.338 C 369.011 177.877, 370.611 176.412, 372.563 175.083 C 377.165 171.948, 380.541 166.030, 382.105 158.354 C 383.741 150.323, 382.151 141.005, 377.515 131.458 C 374.403 125.049, 374.263 124.367, 375.730 122.746 C 377.641 120.635, 377.482 120.433, 373 119.276 C 369.214 118.299, 368.677 116.695, 371.965 116.180 C 374.908 115.719, 389.304 119.535, 395.744 122.483 C 402.264 125.468, 404.592 125.631, 405.895 123.196 C 407.119 120.908, 406.185 119.401, 402.730 118.087 C 399.780 116.966, 399.434 115.619, 401.021 111.443 C 401.730 109.579, 401.715 108.361, 400.970 107.464 C 400.380 106.753, 395.179 104.895, 389.412 103.336 C 380.070 100.809, 378.866 100.227, 378.379 98 C 378.079 96.625, 377.661 94.940, 377.450 94.256 C 377.240 93.572, 374.920 91.993, 372.296 90.747 C 366.155 87.832, 365.808 85.805, 370.608 80.889 C 374.554 76.848, 377.386 75.957, 378.344 78.455 C 379.097 80.417, 386.301 84, 389.492 84 C 392.840 84, 398.152 81.749, 402.338 78.556 C 410.556 72.287, 414.404 57.223, 410.209 47.740 C 405.340 36.732, 388.172 31.377, 379.145 38.051 C 374.315 41.622, 371.570 48.222, 371.683 55.991 C 371.735 59.571, 372.291 63.800, 372.917 65.390 C 374.246 68.759, 372.963 70.694, 366.806 74.607 C 363.499 76.708, 363.079 77.456, 362.806 81.727 C 362.535 85.959, 362.217 86.539, 360 86.846 C 356.340 87.352, 354.933 88.884, 355.618 91.614 C 356.489 95.084, 355.288 98.776, 352.866 100.072 C 351.142 100.994, 350.403 100.848, 348.823 99.268 C 347.167 97.611, 347.062 96.958, 348.092 94.697 C 349.828 90.887, 348.272 89.561, 339.209 87.127 C 326.623 83.747, 321.073 83.432, 315.737 85.792 C 309.312 88.634, 302.602 95.135, 300.552 100.503 C 299.053 104.428, 298.459 105, 295.884 105 C 292.471 105, 284.985 101.408, 276.725 95.808 L 270.951 91.892 272.652 89.012 C 273.896 86.906, 274.064 85.777, 273.278 84.816 C 272.686 84.092, 271.875 79.527, 271.476 74.671 C 270.931 68.039, 270.359 65.691, 269.180 65.239 C 268.316 64.907, 262.634 65.183, 256.554 65.851 C 250.474 66.519, 244.388 67.164, 243.030 67.283 C 240.806 67.478, 240.490 67.030, 239.870 62.800 C 238.986 56.778, 238.767 56.467, 232.640 52.540 C 223.475 46.665, 222.003 44.605, 221.978 37.614 C 221.941 27.234, 216.957 19.660, 208.110 16.539 C 202.422 14.532, 191.108 14.682, 183.489 16.864 M 176 92.941 C 176 94.009, 176.412 95.136, 176.915 95.447 C 178.011 96.125, 178.892 94.008, 178.246 92.250 C 177.531 90.307, 176 90.779, 176 92.941 M 232.231 92.105 C 224.225 93.036, 221 94.308, 221 96.535 C 221 97.341, 221.113 98, 221.250 98 C 221.387 98, 225.027 97.325, 229.338 96.500 C 233.649 95.675, 239.499 94.994, 242.338 94.986 C 248.906 94.969, 252 94.135, 252 92.383 C 252 90.796, 244.409 90.689, 232.231 92.105 M 242.538 99.939 C 241.443 101.711, 245.096 102.629, 250.295 101.888 C 253.158 101.480, 256.314 101.113, 257.309 101.073 C 258.304 101.033, 258.840 100.550, 258.500 100 C 257.717 98.733, 243.317 98.678, 242.538 99.939 M 266.835 102.061 C 269.315 104.371, 275.057 107, 277.623 107 C 279.138 107, 279.115 106.782, 277.405 104.862 C 275.188 102.374, 270.031 100, 266.844 100 L 264.623 100 266.835 102.061 M 290 110 C 290.825 110.533, 292.625 110.969, 294 110.969 C 295.375 110.969, 297.175 110.533, 298 110 C 299.068 109.310, 297.916 109.031, 294 109.031 C 290.084 109.031, 288.932 109.310, 290 110 M 280.250 117.026 C 275.126 120.820, 274.611 122.752, 279.491 119.873 C 282.197 118.276, 284.895 117.778, 291.491 117.657 C 296.171 117.570, 300 117.220, 300 116.879 C 300 116.537, 297.687 115.951, 294.860 115.576 C 292.033 115.201, 288.545 114.666, 287.110 114.386 C 285.224 114.020, 283.321 114.752, 280.250 117.026 M 340.081 117.536 C 326.681 121.269, 318.071 131.633, 318.022 144.090 C 317.994 151.259, 322.076 159.733, 328.578 166 C 331.145 168.475, 333.054 170.050, 332.820 169.500 C 332.586 168.950, 331.574 166.700, 330.570 164.500 C 326.734 156.091, 327.654 139.563, 332.489 130.021 C 336.954 121.210, 345.269 116.148, 353.194 117.415 C 366.219 119.498, 374.495 130.470, 375.678 147.222 C 376.973 165.578, 368.998 177, 354.884 177 C 349.454 177, 345.984 175.131, 340.567 169.289 C 335.914 164.270, 334.285 150.500, 338.345 150.500 C 339.834 150.500, 340.264 151.443, 340.576 155.394 C 341.390 165.726, 347.544 173.283, 355.058 173.180 C 362.272 173.080, 367.722 167.896, 370.574 158.422 C 373.290 149.395, 373.553 149.618, 360.983 150.282 C 354.279 150.635, 350.192 150.498, 350.542 149.931 C 350.859 149.419, 354.129 148.995, 357.809 148.989 C 367.178 148.974, 372 148.047, 372 146.262 C 372 145.228, 371.476 145.018, 370.250 145.559 C 369.288 145.985, 367.150 146.370, 365.500 146.416 C 362.866 146.490, 362.538 146.195, 362.810 144 C 364.134 133.325, 364.256 132.795, 365.096 134.121 C 365.576 134.879, 365.976 136.417, 365.985 137.537 C 365.995 138.853, 366.710 139.628, 368.004 139.725 C 372.368 140.054, 367.399 129.934, 361.027 125.519 C 351.487 118.907, 338.563 122.642, 335.490 132.898 C 334.819 135.138, 334.972 135.256, 337.827 134.685 C 340.505 134.149, 341.136 134.484, 342.941 137.405 C 346.609 143.339, 345.470 146.375, 339.637 146.209 C 336.152 146.110, 334.030 143.820, 333.937 140.059 L 333.873 137.500 332.845 140 C 331.456 143.374, 332.522 154.242, 335.041 162.399 C 339.545 176.981, 349.560 182.130, 363.369 176.963 C 378.846 171.172, 384.116 153.150, 376.019 133.701 C 372.448 125.123, 371.754 124.378, 363.176 119.910 C 355.683 116.008, 348.294 115.249, 340.081 117.536 M 283.486 126.386 C 281.642 127.735, 281.681 128.134, 284.951 141.136 C 287.742 152.235, 294.592 177.572, 296.607 184.250 C 297.215 186.266, 300.551 186.614, 301.271 184.736 C 301.538 184.041, 299.999 177.178, 297.851 169.486 C 292.759 151.245, 290.260 140.072, 289.412 131.750 C 288.676 124.529, 287.492 123.457, 283.486 126.386 M 247.707 131.258 C 243.461 131.875, 241.056 132.667, 241.290 133.372 C 241.879 135.140, 244.533 135.273, 253.590 133.987 C 259.553 133.141, 262 132.387, 262 131.397 C 262 129.778, 258.158 129.740, 247.707 131.258 M 236.342 142.987 C 226.667 145.523, 216.691 149.542, 209.750 153.700 C 206.588 155.595, 204 157.358, 204 157.618 C 204 157.878, 205.540 157.802, 207.422 157.449 C 211.986 156.592, 216.142 157.607, 220.677 160.685 C 224.663 163.390, 226.917 163.444, 248.792 161.358 L 255.084 160.758 253.077 166.039 C 251.973 168.944, 249.490 173.701, 247.558 176.611 C 243.611 182.555, 243.741 182.509, 228 183.510 C 222.775 183.842, 213.922 184.889, 208.327 185.836 C 202.733 186.783, 198.316 187.298, 198.512 186.981 C 198.708 186.663, 201.054 185.380, 203.726 184.129 C 209.015 181.651, 214 175.217, 214 170.868 C 214 165.840, 207.861 161, 201.484 161 C 197.552 161, 185.165 173.855, 181.218 182.031 C 177.830 189.050, 176.362 196.621, 177.929 198.990 C 178.790 200.292, 180.048 200.184, 187.886 198.139 C 205.952 193.426, 216.730 193.620, 234.792 198.986 C 240.372 200.644, 246.018 202, 247.340 202 C 250.260 202, 262.556 194.077, 269.776 187.543 C 277.843 180.242, 280.452 175.089, 280.412 166.533 C 280.387 161.387, 279.817 158.427, 278.287 155.500 C 271.822 143.139, 254.955 138.107, 236.342 142.987 M 82.558 155.455 C 75.962 157.867, 69.131 164.345, 67.552 169.685 C 66.969 171.659, 67.512 172.040, 73.175 173.629 C 79.793 175.486, 84.787 179.604, 93.222 190.156 C 96.668 194.468, 105.073 199.261, 106.567 197.766 C 106.855 197.479, 106.561 195.142, 105.914 192.573 C 103.779 184.092, 105.156 175.317, 110.270 164.829 C 112.771 159.698, 114.597 155.275, 114.328 155 C 114.059 154.725, 107.688 154.390, 100.170 154.256 C 90.236 154.079, 85.423 154.407, 82.558 155.455 M 65.667 161.667 C 65.300 162.033, 65 162.988, 65 163.789 C 65 164.970, 65.283 165.010, 66.500 164 C 67.325 163.315, 68 162.360, 68 161.878 C 68 160.842, 66.616 160.717, 65.667 161.667 M 238 167.263 C 234.425 167.723, 229.676 168.315, 227.447 168.581 C 224.279 168.958, 223.011 169.712, 221.640 172.032 C 219.501 175.654, 220.453 175.883, 223.588 172.500 C 225.150 170.814, 226.979 169.996, 229.202 169.989 C 231.016 169.983, 234.289 169.683, 236.475 169.322 L 240.449 168.665 238.702 171.333 C 237.201 173.623, 237.169 174, 238.477 174 C 239.315 174, 240 173.530, 240 172.955 C 240 172.380, 241.152 170.757, 242.561 169.348 C 243.969 167.940, 244.981 166.707, 244.811 166.608 C 244.640 166.509, 241.575 166.804, 238 167.263 M 114.616 173.003 C 111.519 176.432, 111.003 177.686, 111.023 181.753 C 111.050 187.214, 114.944 195.191, 119.064 198.224 C 122.840 201.005, 133.306 202.083, 153.547 201.774 L 171.500 201.500 172.183 195.500 C 172.559 192.200, 173.551 187.588, 174.389 185.250 C 175.226 182.912, 175.761 181, 175.576 181 C 175.392 181, 172.751 182.140, 169.707 183.534 C 155.830 189.887, 126.254 188.086, 120 180.507 C 119.093 179.408, 118.529 176.774, 118.573 173.845 C 118.613 171.180, 118.553 169, 118.439 169 C 118.326 169, 116.605 170.801, 114.616 173.003 M 227.667 171.667 C 226.307 173.026, 227.072 174, 229.500 174 C 230.875 174, 232 173.592, 232 173.094 C 232 172.595, 230.988 172.409, 229.750 172.680 C 227.942 173.077, 227.795 172.963, 229 172.102 C 229.825 171.513, 230.012 171.024, 229.417 171.015 C 228.821 171.007, 228.033 171.300, 227.667 171.667 M 224 174.059 C 224 174.641, 224.450 174.840, 225 174.500 C 225.550 174.160, 226 173.684, 226 173.441 C 226 173.198, 225.550 173, 225 173 C 224.450 173, 224 173.477, 224 174.059 M 54.523 179.250 C 50.626 182.638, 35.578 219.912, 37.380 221.714 C 38.444 222.777, 39.539 220.692, 46.992 203.415 C 54.899 185.086, 55.911 183.504, 60.715 181.968 C 66.033 180.268, 66.782 179.248, 63.598 178.037 C 59.505 176.481, 57.382 176.765, 54.523 179.250 M 228 179.077 C 222.225 179.510, 215.700 180.338, 213.500 180.917 L 209.500 181.969 213.500 181.448 C 215.700 181.161, 222.563 180.651, 228.750 180.315 C 234.938 179.978, 240 179.320, 240 178.851 C 240 178.383, 239.662 178.065, 239.250 178.145 C 238.838 178.224, 233.775 178.644, 228 179.077 M 278.923 187.345 C 276.406 189.630, 269.206 195.087, 262.923 199.472 C 256.640 203.857, 250.924 208.228, 250.219 209.185 C 249.205 210.563, 248.408 210.726, 246.404 209.963 C 245.010 209.434, 243.337 209.021, 242.685 209.047 C 242.033 209.073, 243.700 209.953, 246.390 211.003 L 251.279 212.913 256.890 208.440 C 259.975 205.980, 266.876 200.592, 272.224 196.467 C 281.382 189.403, 284.545 186.011, 283.815 184.039 C 283.642 183.572, 281.440 185.059, 278.923 187.345 M 299.750 187.972 C 297.767 189.539, 297 191.045, 297 193.373 C 297 198.326, 298.409 199.057, 303.830 196.916 C 306.399 195.901, 311.087 194.798, 314.250 194.464 C 319.773 193.880, 320 193.743, 320 190.987 C 320 189.409, 319.658 187.907, 319.241 187.649 C 318.823 187.391, 314.886 186.869, 310.491 186.489 C 303.216 185.860, 302.254 185.993, 299.750 187.972 M 360.686 192.017 C 356.564 193.254, 354.557 195.102, 356.203 196.146 C 358.035 197.309, 371.756 197.203, 372.487 196.021 C 372.820 195.482, 372.606 194.132, 372.011 193.021 C 370.839 190.831, 366.051 190.406, 360.686 192.017 M 98.983 198.968 C 100.745 202.261, 108.498 209.921, 111.924 211.754 C 114.876 213.334, 115.722 214.703, 118.074 221.702 C 121.180 230.944, 135.144 258.829, 138.905 263.299 L 141.406 266.271 150.299 265.639 C 165.925 264.530, 169.853 261.433, 173.945 247 C 175.114 242.875, 176.774 237.025, 177.633 234 C 178.917 229.482, 180.395 227.316, 185.916 221.867 C 189.612 218.220, 194.405 214.259, 196.568 213.067 L 200.500 210.898 197.137 211.447 C 190.604 212.512, 177.533 224.194, 174.139 232 C 173.064 234.475, 171.211 240.144, 170.023 244.598 C 167.508 254.026, 164.956 258.686, 161.610 259.958 C 160.296 260.458, 155.075 261.009, 150.009 261.183 L 140.797 261.500 134.914 250.500 C 127.532 236.698, 121.228 222.405, 120.816 218.539 C 120.376 214.415, 124.114 212.571, 130.178 213.922 C 132.555 214.451, 141.022 215.823, 148.993 216.970 C 161.935 218.833, 163.605 218.893, 164.603 217.528 C 166.913 214.369, 172.669 216.316, 171.540 219.875 C 171.012 221.537, 170.063 221.998, 167.183 221.993 C 163.778 221.986, 137.897 218.815, 130.109 217.451 L 126.717 216.856 127.282 221.064 C 127.795 224.889, 139.978 251.091, 143.167 255.229 C 144.322 256.729, 145.470 256.853, 151.785 256.167 C 161.421 255.119, 162.687 253.790, 164.992 242.301 C 165.979 237.381, 167.925 231.138, 169.317 228.427 C 172.800 221.645, 187.299 207.492, 192.709 205.595 C 198.717 203.486, 210.800 201.978, 217.106 202.548 C 220.947 202.895, 221.924 202.763, 220.500 202.088 C 214.959 199.463, 194.940 201.784, 187.091 205.962 C 184.251 207.474, 179.734 208.114, 165.500 209.020 C 116.158 212.163, 113.020 211.837, 103.546 202.588 C 100.522 199.635, 98.468 198.006, 98.983 198.968 M 223.813 203.683 C 224.534 203.972, 225.397 203.936, 225.729 203.604 C 226.061 203.272, 225.471 203.036, 224.417 203.079 C 223.252 203.127, 223.015 203.364, 223.813 203.683 M 304.667 206.667 C 303.372 207.961, 304.034 212.081, 307.047 221.488 C 309.683 229.718, 310.391 230.998, 312.297 230.985 C 317.397 230.949, 317.492 229.974, 313.599 217.612 C 310.324 207.214, 309.701 206, 307.638 206 C 306.370 206, 305.033 206.300, 304.667 206.667 M 349.374 208.672 C 345.717 209.419, 343.087 213.319, 337.961 225.592 C 333.471 236.346, 331.989 242.656, 333.581 244.248 C 333.901 244.568, 337.416 243.074, 341.393 240.930 C 345.369 238.785, 351.858 236.299, 355.811 235.406 C 359.765 234.514, 363 233.254, 363 232.608 C 363 231.962, 361.275 226.274, 359.166 219.967 C 355.162 207.989, 354.794 207.565, 349.374 208.672 M 365.006 212.750 C 365.009 214.262, 365.430 217.075, 365.942 219 C 366.453 220.925, 367.368 224.412, 367.975 226.750 C 368.689 229.505, 369.636 231, 370.666 231 C 372.599 231, 372.099 226.769, 368.970 216.639 C 366.849 209.771, 364.996 207.953, 365.006 212.750 M 225.071 219.752 C 217.187 223.772, 215.020 232.481, 220.532 237.994 L 223.518 240.980 227.009 236.286 C 231.635 230.065, 235.852 227.761, 243.880 227.068 L 250.451 226.500 242.148 222.250 C 232.995 217.565, 230.170 217.152, 225.071 219.752 M 110.459 230.067 C 109.620 231.424, 109.837 231.616, 114.301 233.481 C 117.550 234.839, 118 234.846, 118 233.539 C 118 232.721, 116.672 231.365, 115.050 230.526 C 111.541 228.711, 111.311 228.688, 110.459 230.067 M 237.763 231.565 C 234.720 233.216, 232 237.723, 232 241.113 C 232 242.329, 233.430 245.554, 235.178 248.278 L 238.357 253.231 240.424 250.365 C 244.176 245.166, 246.864 243.349, 252.716 242.053 C 255.897 241.349, 258.834 240.574, 259.243 240.332 C 260.623 239.512, 256.180 232.403, 253.533 231.197 C 249.930 229.555, 241.086 229.762, 237.763 231.565 M 298.551 242.059 C 295.231 250.813, 294.051 263.495, 295.986 269.625 C 297.859 275.560, 301.476 280.539, 307.197 285.062 C 312.034 288.885, 312.491 289.049, 313.700 287.396 C 315.341 285.151, 315.417 283.183, 313.800 284.800 C 311.939 286.661, 310.681 286.275, 306.248 282.481 C 300.299 277.388, 296 268.267, 296 260.735 C 296 254.405, 298.200 244.448, 300.641 239.727 C 301.455 238.152, 301.953 236.359, 301.747 235.742 C 301.541 235.124, 300.103 237.967, 298.551 242.059 M 209 237.258 C 209 237.950, 214 242.112, 220.111 246.508 C 226.221 250.904, 232.944 255.743, 235.050 257.263 C 237.156 258.783, 240.369 260.299, 242.190 260.634 C 245.257 261.197, 245.146 261.048, 240.688 258.616 C 233.242 254.553, 224.799 248.591, 217.168 242.007 C 209.870 235.711, 209 235.204, 209 237.258 M 215.500 245.446 C 230.683 259.091, 236.182 263.032, 239.961 262.978 C 240.808 262.966, 239.700 262.118, 237.500 261.095 C 235.300 260.071, 229.450 255.961, 224.500 251.961 C 214.688 244.033, 210.774 241.199, 215.500 245.446 M 101 245.893 C 101 246.997, 103.595 248.072, 104.375 247.292 C 104.689 246.978, 104.706 246.334, 104.414 245.861 C 103.712 244.725, 101 244.750, 101 245.893 M 207 248.140 C 207 248.768, 210.370 252.596, 214.488 256.649 C 221.757 263.800, 228.712 268.041, 235.516 269.472 L 238.500 270.099 235.500 268.698 C 230.558 266.389, 219.454 258.257, 213.310 252.447 C 207.018 246.497, 207 246.485, 207 248.140 M 98.756 250.577 C 97.744 251.590, 99.098 254, 100.680 254 C 101.512 254, 102.007 253.278, 101.823 252.333 C 101.476 250.543, 99.768 249.565, 98.756 250.577 M 78.500 253.047 C 73.421 255.020, 68.050 259.446, 63.510 265.398 C 59.130 271.141, 60.789 270.408, 67.250 263.745 C 73.396 257.408, 76.566 255.710, 86.250 253.570 C 87.763 253.235, 89 252.520, 89 251.981 C 89 250.421, 83.935 250.935, 78.500 253.047 M 319.581 253.317 C 317.865 254.572, 317.932 255.172, 320.998 266.067 C 324.549 278.684, 332.156 303.112, 334.600 309.750 C 335.836 313.106, 336.661 314, 338.524 314 C 339.821 314, 341.168 313.538, 341.517 312.973 C 341.866 312.408, 340.800 308.021, 339.149 303.223 C 335.624 292.983, 326.451 261.164, 325.462 255.750 C 324.724 251.705, 322.847 250.929, 319.581 253.317 M 95.667 257.667 C 94.309 259.024, 94.969 261.949, 96.500 261.362 C 97.325 261.045, 98 259.934, 98 258.893 C 98 256.993, 96.912 256.421, 95.667 257.667 M 225 259.332 C 225 260.318, 235.503 265.848, 238.500 266.439 C 241.046 266.941, 240.939 266.811, 237.793 265.582 C 235.753 264.786, 232.041 262.936, 229.543 261.472 C 227.044 260.008, 225 259.045, 225 259.332 M 271.597 261.844 C 271.310 262.307, 270.118 267.106, 268.948 272.506 C 267.778 277.907, 264.583 288.665, 261.849 296.413 C 259.115 304.161, 254.612 318.779, 251.844 328.897 C 244.338 356.327, 239.093 367.533, 231.634 372.081 C 227.532 374.583, 223.910 374.498, 208.165 371.531 C 200.958 370.173, 192.077 368.756, 188.429 368.382 C 182.351 367.760, 181.826 367.856, 182.148 369.530 C 182.581 371.777, 184.443 372.293, 203.996 375.591 C 223.343 378.854, 229.450 378.604, 234.735 374.329 C 240.051 370.030, 246.004 358.231, 251.509 341.081 C 254.084 333.061, 259.485 316.375, 263.512 304 C 267.539 291.625, 271.572 277.900, 272.473 273.500 C 273.374 269.100, 274.320 264.488, 274.575 263.250 C 275.033 261.023, 272.765 259.952, 271.597 261.844 M 366.550 262.814 C 367.072 263.261, 370.200 264.434, 373.500 265.420 C 389.324 270.149, 405.612 282.490, 414.518 296.500 C 424.903 312.837, 431.699 332.714, 432.982 350.500 L 433.703 360.500 433.852 352.860 C 434.212 334.309, 426.907 310.600, 415.590 293.592 C 406.022 279.213, 393.321 269.099, 378.369 263.955 C 372.744 262.020, 364.718 261.245, 366.550 262.814 M 93.079 267.583 C 93.127 268.748, 93.364 268.985, 93.683 268.188 C 93.972 267.466, 93.936 266.603, 93.604 266.271 C 93.272 265.939, 93.036 266.529, 93.079 267.583 M 97 267.583 C 97 269.349, 99.153 269.042, 99.771 267.188 C 99.989 266.534, 99.454 266, 98.583 266 C 97.713 266, 97 266.712, 97 267.583 M 225 268.089 C 230.176 272.321, 235.185 273.962, 242.500 273.823 L 249.500 273.690 241.500 273.070 C 234.683 272.541, 232.808 271.972, 228.820 269.225 C 223.629 265.648, 221.093 264.894, 225 268.089 M 45.676 269.662 C 42.606 271.270, 40 275.772, 40 279.465 C 40 281.033, 41.378 283.480, 43.547 285.765 C 46.953 289.351, 47.142 289.420, 48.297 287.500 C 48.959 286.400, 51.668 283.332, 54.318 280.682 L 59.135 275.863 55.640 272.567 C 51.346 268.518, 49.106 267.865, 45.676 269.662 M 212.128 271.692 C 212.882 272.623, 212.986 273.076, 212.357 272.699 C 211.661 272.282, 210.962 273.015, 210.572 274.569 C 209.860 277.406, 213.140 282.282, 219.541 287.902 C 223.757 291.604, 227.515 292.349, 224.405 288.867 C 222.509 286.745, 222.512 286.738, 225 287.416 C 227.146 288.002, 226.933 287.598, 223.500 284.564 C 219.189 280.755, 219.365 280.103, 224.050 282.526 C 225.672 283.365, 227 283.620, 227 283.093 C 227 282.566, 226.141 281.862, 225.090 281.529 C 224.040 281.195, 222.577 280.191, 221.840 279.298 C 220.636 277.837, 220.728 277.794, 222.750 278.871 C 223.988 279.531, 225 279.800, 225 279.471 C 225 278.583, 218.706 273.465, 217.916 273.710 C 217.543 273.826, 216.440 273.038, 215.464 271.960 C 213.150 269.404, 210.070 269.156, 212.128 271.692 M 240.250 270.689 C 241.213 270.941, 242.787 270.941, 243.750 270.689 C 244.713 270.438, 243.925 270.232, 242 270.232 C 240.075 270.232, 239.287 270.438, 240.250 270.689 M 90.500 275 C 88.995 277.910, 89.017 278, 91.224 277.985 C 94.732 277.961, 95.865 276.812, 94.906 274.250 C 93.760 271.185, 92.349 271.425, 90.500 275 M 98.718 273.292 C 98.425 274.056, 98.548 275.269, 98.992 275.986 C 100.113 277.801, 103.224 276.400, 102.812 274.265 C 102.397 272.106, 99.443 271.404, 98.718 273.292 M 221.564 273.293 C 221.940 274.279, 222.499 274.834, 222.807 274.526 C 223.115 274.219, 222.808 273.412, 222.124 272.733 C 221.136 271.753, 221.022 271.868, 221.564 273.293 M 216 275.500 C 217.292 276.875, 218.574 278, 218.849 278 C 219.124 278, 218.292 276.875, 217 275.500 C 215.708 274.125, 214.426 273, 214.151 273 C 213.876 273, 214.708 274.125, 216 275.500 M 140 275.566 C 121.637 279.729, 87.138 292.085, 86.224 294.827 C 85.385 297.344, 90.322 296.825, 98.477 293.537 C 110.441 288.714, 134.859 281.477, 144.257 279.968 C 154.176 278.376, 160.948 279.207, 168.549 282.949 C 174.668 285.962, 179.672 291.376, 182.003 297.508 C 187.487 311.933, 183.297 334.942, 174.210 340.304 C 170.266 342.630, 171.276 343.546, 176.668 342.534 C 181.570 341.615, 189.212 334.259, 192.001 327.776 C 193.912 323.333, 194.159 321.307, 193.796 313.062 C 193.427 304.675, 192.969 302.709, 190.077 297.060 C 185.729 288.569, 177.316 279.826, 170.691 276.914 C 164.105 274.019, 149.629 273.383, 140 275.566 M 185.059 283.715 C 192.163 290.293, 197.527 300.334, 199.100 310 C 202.262 329.433, 191.805 347, 177.075 347 C 175.771 347, 175.150 347.434, 175.544 348.071 C 176.342 349.363, 183.314 348.370, 187.124 346.421 C 190.395 344.748, 196.960 336.955, 200.116 331 C 202.211 327.046, 202.500 325.166, 202.500 315.500 C 202.500 305.604, 202.225 303.914, 199.765 298.661 C 196.802 292.336, 185.124 279.755, 181.311 278.779 C 179.849 278.405, 181.092 280.043, 185.059 283.715 M 55.616 283.003 C 53.606 285.228, 52 288.058, 52 289.374 C 52 291.329, 63.172 307, 64.566 307 C 64.778 307, 66.425 306.102, 68.226 305.004 C 72.268 302.539, 76.197 302.440, 78.229 304.750 C 81.073 307.986, 84.139 315.163, 85.535 321.856 C 86.913 328.466, 89.398 332, 92.667 332 C 93.462 332, 95.038 329.907, 96.169 327.350 C 97.912 323.410, 98.056 322.150, 97.109 319.100 C 94.829 311.757, 65.616 278.977, 61.366 278.992 C 60.152 278.997, 57.674 280.725, 55.616 283.003 M 82.585 281.658 C 79.931 283.095, 79.833 283.327, 81.486 284.252 C 83.551 285.408, 96.305 284.595, 100.373 283.048 C 105.445 281.120, 103.164 279.999, 94.250 280.040 C 88.242 280.068, 84.587 280.575, 82.585 281.658 M 391.334 284.429 C 391.636 285.215, 392.172 287.577, 392.526 289.679 C 394.165 299.423, 396.028 302, 401.434 302 C 405.123 302, 404.753 303.857, 398.839 315.025 L 393.677 324.772 390.002 320.136 C 386.191 315.329, 380.653 310.053, 375.538 306.356 C 373.048 304.557, 372.779 303.972, 373.847 302.684 C 375.077 301.202, 374.833 299.226, 372.373 290.750 C 371.673 288.339, 370.855 288.493, 362.669 292.574 C 352.583 297.602, 352.625 297.540, 354.831 304.028 C 356.514 308.980, 357.017 309.547, 360.443 310.357 C 363.370 311.050, 364.512 311.981, 365.588 314.555 C 367.334 318.736, 368.968 319.764, 370.512 317.653 C 371.177 316.744, 372.140 316, 372.652 316 C 373.865 316, 381.136 323.677, 383.435 327.385 C 385.469 330.667, 391 347.148, 391 349.929 C 391 350.965, 391.932 352.011, 393.135 352.325 C 395.127 352.846, 395.239 353.375, 394.801 360.192 C 394.342 367.340, 391.786 374.856, 389.592 375.508 C 388.992 375.687, 387.262 376.104, 385.750 376.436 C 382.491 377.150, 382.274 378.598, 384.992 381.492 C 386.900 383.522, 386.910 383.712, 385.242 385.950 C 380.951 391.708, 376.049 396.445, 376.025 394.857 C 375.987 392.376, 373.726 391.990, 368.035 393.491 C 361.826 395.129, 359.696 396.728, 360.357 399.256 C 360.804 400.965, 360.443 401.085, 356.676 400.479 C 354.379 400.110, 351.488 399.166, 350.250 398.381 C 347.540 396.662, 347.235 395.520, 349.862 396.926 C 352.269 398.214, 355.358 396.098, 354.859 393.504 C 354.661 392.479, 352.326 390.363, 349.670 388.802 L 344.840 385.964 343.701 388.982 C 343.074 390.642, 342.296 392, 341.972 392 C 340.740 392, 337.551 389.062, 338.750 389.032 C 339.438 389.014, 340 387.988, 340 386.750 C 339.999 385.512, 341.462 381.648, 343.249 378.163 L 346.499 371.826 343.569 369.305 C 341.165 367.237, 339.927 366.881, 336.675 367.317 C 334.495 367.609, 332.334 368.445, 331.871 369.174 C 331.196 370.239, 331.028 370.212, 331.015 369.036 C 331.002 367.759, 330.810 367.762, 329.515 369.056 C 325.721 372.851, 332.705 390.907, 341.986 401.297 C 346.137 405.944, 354.707 411, 358.433 411 C 359.459 411, 359.675 412.006, 359.281 414.944 C 358.782 418.658, 359.087 419.239, 364.501 424.915 C 371.918 432.692, 377.458 435.461, 384.039 434.682 C 389.529 434.032, 398.914 429.787, 401.894 426.608 L 403.869 424.500 397.460 410.600 L 391.052 396.700 395.044 388.600 C 403.747 370.942, 404.171 347.016, 396.062 331.121 C 393.526 326.150, 393.519 326.324, 396.250 326.421 C 398.133 326.487, 399.355 324.786, 403.737 316 C 406.617 310.225, 408.979 304.565, 408.987 303.421 C 409.006 300.341, 403.501 292.593, 397.665 287.488 C 392.409 282.890, 390.365 281.902, 391.334 284.429 M 153.898 291.289 C 148.193 295.131, 145.573 301.149, 145.533 310.500 C 145.458 328.553, 153.423 339.444, 164.847 336.910 C 180.562 333.423, 183.380 299.909, 168.710 290.965 C 164.316 288.286, 158.156 288.420, 153.898 291.289 M 143.250 292.819 C 142.012 292.995, 141 293.783, 141 294.570 C 141 296.170, 142.794 296.416, 144.872 295.100 C 146.862 293.840, 145.871 292.446, 143.250 292.819 M 245.981 294.698 C 242.369 297.187, 241.643 298.285, 234.863 311.500 C 227.714 325.436, 224.721 330.084, 217.157 339 L 211.643 345.500 217.442 340 C 224.691 333.124, 242.119 312.417, 246.753 305.172 C 250.167 299.835, 251.498 294.068, 249.481 293.350 C 248.921 293.151, 247.346 293.757, 245.981 294.698 M 318.374 297.469 C 318.071 298.258, 318.114 299.376, 318.470 299.952 C 319.555 301.707, 322 301.121, 322 299.107 C 322 296.777, 319.136 295.483, 318.374 297.469 M 137.012 302.485 C 135.120 304.765, 136.308 313.323, 139.552 320.775 C 141.054 324.226, 142.450 326.883, 142.654 326.680 C 142.858 326.476, 142.068 324.147, 140.899 321.505 C 139.212 317.691, 138.912 315.650, 139.441 311.601 C 140.551 303.106, 140.546 301.711, 139.400 301.314 C 138.795 301.105, 137.721 301.632, 137.012 302.485 M 155.175 303.254 C 149.675 305.900, 147.501 316.245, 150.560 325.221 C 152.575 331.134, 154.873 333.119, 160.432 333.745 C 164.554 334.210, 165.244 333.956, 168.383 330.817 C 174.739 324.461, 174.548 312.312, 167.988 305.753 C 163.976 301.741, 159.951 300.956, 155.175 303.254 M 358.813 305.683 C 359.534 305.972, 360.397 305.936, 360.729 305.604 C 361.061 305.272, 360.471 305.036, 359.417 305.079 C 358.252 305.127, 358.015 305.364, 358.813 305.683 M 69.750 307.197 C 68.237 307.730, 67 308.788, 67 309.547 C 67 311.404, 78.865 324, 80.615 324 C 82.812 324, 82.244 319.834, 79.250 313.995 C 75.929 307.516, 73.589 305.842, 69.750 307.197 M 226.464 314.741 C 212.605 332.455, 196.006 351.893, 192.379 354.658 C 188.999 357.234, 187.941 357.490, 181.075 357.394 C 175.318 357.313, 171.288 356.515, 164.282 354.070 C 154.619 350.697, 150.725 350.428, 150.216 353.098 C 149.859 354.975, 156.033 357.781, 167.773 361.078 C 177.099 363.697, 188.250 363.254, 193.379 360.061 C 197.955 357.212, 204.712 349.875, 213.697 338 C 221.199 328.085, 234.434 307.101, 233.669 306.336 C 233.475 306.142, 230.233 309.924, 226.464 314.741 M 368.229 308.187 C 368.727 309.682, 371 310.505, 371 309.190 C 371 308.653, 370.287 307.941, 369.416 307.606 C 368.443 307.233, 367.985 307.456, 368.229 308.187 M 157.102 309.898 C 154.547 312.453, 153.581 317.330, 155.062 320.191 C 156.687 323.331, 159.099 326, 160.310 326 C 160.860 326, 160.521 325.128, 159.557 324.063 C 157.419 321.701, 158.270 320, 161.590 320 C 164.575 320, 165.733 322.398, 163.862 324.705 C 162.730 326.100, 162.728 326.247, 163.852 325.570 C 165.682 324.468, 168 318.704, 168 315.255 C 168 308.828, 161.411 305.589, 157.102 309.898 M 52.518 325 C 52.746 338.243, 53.222 342.946, 54.927 348.829 C 60.606 368.427, 73.705 384.036, 84.421 383.978 C 91.763 383.939, 100.318 378.686, 106.149 370.636 C 110.202 365.040, 109.696 363.801, 105.566 369.209 C 101.591 374.416, 94.328 379.348, 88.287 380.944 C 84.859 381.850, 83.367 381.764, 80.287 380.481 C 75.374 378.437, 68.744 372.016, 63.864 364.578 C 56.917 353.991, 54.695 344, 52.615 314 C 52.405 310.975, 52.361 315.925, 52.518 325 M 379.506 316.006 C 380.504 317.110, 381.538 317.795, 381.803 317.530 C 382.475 316.858, 379.981 314, 378.723 314 C 378.155 314, 378.507 314.903, 379.506 316.006 M 339.450 318.413 C 337.560 319.795, 337.590 320.046, 340.824 329.913 C 344.175 340.137, 345.269 341.382, 348.884 339.093 C 350.052 338.353, 349.992 337.066, 348.502 330.858 C 345.251 317.313, 343.759 315.262, 339.450 318.413 M 60.635 321.073 C 59.186 322.212, 58 323.472, 58 323.872 C 58 325.366, 65.077 323.725, 65.990 322.019 C 67.854 318.536, 64.592 317.960, 60.635 321.073 M 416.040 325.435 C 413.537 329.485, 414.142 331.432, 417.631 330.556 C 420.844 329.750, 421.858 332.394, 419.385 335.128 C 417.573 337.130, 417.574 337.215, 419.454 338.590 C 420.515 339.366, 422.217 340, 423.236 340 C 424.832 340, 424.997 339.476, 424.420 336.250 C 423.350 330.262, 420.600 322.665, 419.360 322.270 C 418.734 322.070, 417.239 323.495, 416.040 325.435 M 385.177 324.667 C 385.663 327.176, 388 327.520, 388 325.083 C 388 323.855, 387.354 323, 386.427 323 C 385.495 323, 384.985 323.680, 385.177 324.667 M 311.126 328.183 C 308.291 336.946, 306.885 345.606, 306.367 357.500 C 305.138 385.738, 312.066 408.385, 328.218 428.922 C 337.251 440.407, 352.053 449.829, 364.781 452.196 C 380.844 455.184, 401.506 445.665, 413.599 429.706 C 425.262 414.317, 435.200 383.893, 433.758 368 C 433.369 363.717, 433.341 363.775, 433.175 369.199 C 432.956 376.325, 429.599 393.945, 427.047 401.364 C 418.648 425.776, 401.576 443.068, 380.540 448.470 C 364.984 452.464, 351.281 447.911, 336.445 433.818 C 320.159 418.347, 311.530 399.596, 308.766 373.666 C 307.468 361.490, 308.754 342.082, 311.550 331.643 C 313.233 325.358, 312.905 322.684, 311.126 328.183 M 106.500 327.667 C 103.397 328.504, 101 331.082, 101 333.583 C 101 335.424, 102.052 336.250, 106.538 337.928 C 109.583 339.068, 112.639 340, 113.329 340 C 114.695 340, 120.441 329.108, 119.546 328.213 C 118.768 327.435, 108.895 327.022, 106.500 327.667 M 122.203 330.197 C 121.541 330.859, 121.013 331.873, 121.028 332.450 C 121.044 333.027, 126.557 335.256, 133.278 337.403 C 148.785 342.355, 148 342.190, 148 340.492 C 148 338.507, 144.889 336.684, 135.500 333.169 C 124.434 329.025, 123.568 328.832, 122.203 330.197 M 66 333.296 C 66 335.975, 70.991 340.917, 74.872 342.080 C 77.910 342.990, 79.324 342.890, 82.548 341.536 C 86.005 340.085, 86.274 339.750, 84.697 338.859 C 83.463 338.162, 81.917 338.182, 79.798 338.921 C 75.430 340.443, 75.440 340.447, 70.478 335.873 C 67.540 333.165, 66 332.279, 66 333.296 M 389.188 333.063 C 389.428 333.784, 390.216 334.572, 390.938 334.813 C 391.688 335.063, 392.063 334.688, 391.813 333.938 C 391.572 333.216, 390.784 332.428, 390.063 332.188 C 389.313 331.938, 388.938 332.313, 389.188 333.063 M 147 335.339 C 147 336.076, 148.146 337.201, 149.547 337.839 C 153.098 339.457, 153.266 339.336, 151.408 336.500 C 149.656 333.827, 147 333.127, 147 335.339 M 118.572 338.568 C 118.197 340.065, 118.252 341.635, 118.695 342.057 C 119.450 342.778, 137.833 351.210, 142.739 353.086 C 144.629 353.809, 145.226 353.464, 146.563 350.878 C 147.434 349.193, 148.002 347.723, 147.824 347.611 C 146.196 346.588, 123.558 336.927, 121.691 336.458 C 119.648 335.946, 119.145 336.287, 118.572 338.568 M 163.500 344.450 C 168.943 347.092, 171 347.528, 171 346.039 C 171 345.198, 167.115 343.871, 160.500 342.452 C 159.400 342.216, 160.750 343.115, 163.500 344.450 M 90.645 348.849 L 87.915 351.698 89.998 357.266 C 92.356 363.568, 95.473 368, 97.546 368 C 99.362 368, 106.012 358.135, 105.962 355.513 C 105.937 354.213, 103.966 352.171, 100.400 349.750 C 97.361 347.688, 94.538 346, 94.125 346 C 93.712 346, 92.146 347.282, 90.645 348.849 M 423 355.462 C 423 360.502, 422.344 364.679, 420.979 368.326 C 418.289 375.517, 416.181 377.323, 411.050 376.833 C 408.822 376.621, 407 376.820, 407 377.275 C 407 378.831, 413.930 381, 418.900 381 C 424.807 381, 424.634 381.338, 425.983 367.178 C 427.085 355.610, 426.443 348, 424.364 348 C 423.334 348, 423 349.826, 423 355.462 M 368 352.188 C 368.480 354.010, 369.047 356.625, 369.258 358 L 369.643 360.500 370.832 357.658 C 371.762 355.434, 371.747 354.254, 370.760 352.232 C 368.798 348.208, 366.943 348.179, 368 352.188 M 344.750 351.080 C 342.494 352.394, 342.376 359.233, 344.571 361.429 C 347.978 364.835, 357 361.534, 357 356.882 C 357 351.992, 349.381 348.383, 344.750 351.080 M 397.015 351.750 C 397.024 352.163, 397.467 353.175, 398 354 C 398.784 355.213, 398.972 355.069, 398.985 353.250 C 398.993 352.012, 398.550 351, 398 351 C 397.450 351, 397.007 351.337, 397.015 351.750 M 345.250 352.662 C 343.191 353.493, 343.709 359.774, 345.934 360.965 C 348.436 362.304, 348.569 362.288, 350.429 360.429 C 354.273 356.584, 350.299 350.625, 345.250 352.662 M 397.720 361.332 C 396.606 364.165, 396.788 365.612, 398.094 364.306 C 398.695 363.705, 399.020 362.377, 398.814 361.356 C 398.454 359.566, 398.415 359.565, 397.720 361.332 M 396.729 369.604 C 396.328 370.005, 396 371.023, 396 371.867 C 396 372.992, 396.296 373.104, 397.113 372.288 C 397.724 371.676, 398.053 370.658, 397.842 370.025 C 397.631 369.392, 397.130 369.203, 396.729 369.604 M 331 375 C 331 375.550, 331.450 376, 332 376 C 332.550 376, 333 375.550, 333 375 C 333 374.450, 332.550 374, 332 374 C 331.450 374, 331 374.450, 331 375 M 348.068 380.904 C 346.931 382.502, 346 384.208, 346 384.696 C 346 385.184, 348.475 386.797, 351.500 388.281 C 354.525 389.764, 357 390.613, 357 390.167 C 357 389.202, 351.009 378, 350.493 378 C 350.297 378, 349.206 379.307, 348.068 380.904 M 392.345 379.543 C 391.535 381.653, 392.887 382.793, 394.039 380.971 C 395.263 379.035, 395.239 378, 393.969 378 C 393.401 378, 392.671 378.694, 392.345 379.543 M 333.531 381.293 C 333.103 382.279, 333.034 383.367, 333.376 383.710 C 334.392 384.725, 335.211 383.299, 334.743 381.328 C 334.329 379.581, 334.275 379.580, 333.531 381.293 M 389.583 389.643 C 388.639 392.106, 389.454 392.261, 391.494 390.006 C 393.029 388.310, 393.070 388, 391.762 388 C 390.911 388, 389.930 388.739, 389.583 389.643 M 382.200 394.200 C 380.754 395.646, 380.640 397, 381.965 397 C 382.495 397, 383.411 396.100, 384 395 C 385.179 392.797, 384.088 392.312, 382.200 394.200 M 406.743 402.892 C 409.321 408.464, 411.896 412.874, 412.465 412.691 C 413.532 412.348, 419.229 401.624, 420.934 396.750 L 421.896 394 415.073 394 C 411.320 394, 406.856 393.721, 405.153 393.381 L 402.055 392.761 406.743 402.892 M 385.924 399.636 C 383.694 402.060, 383.671 402.183, 385.632 401.163 C 386.805 400.554, 388.029 399.368, 388.351 398.528 C 389.169 396.396, 388.713 396.604, 385.924 399.636 M 343.500 400 C 343.840 400.550, 344.316 401, 344.559 401 C 344.802 401, 345 400.550, 345 400 C 345 399.450, 344.523 399, 343.941 399 C 343.359 399, 343.160 399.450, 343.500 400 M 376.459 402.067 C 376.096 402.653, 376.040 403.373, 376.333 403.667 C 377.050 404.383, 379 403.121, 379 401.941 C 379 400.663, 377.274 400.748, 376.459 402.067 M 349 403.378 C 349 403.585, 349.675 404.315, 350.500 405 C 351.729 406.020, 352 405.951, 352 404.622 C 352 403.730, 351.325 403, 350.500 403 C 349.675 403, 349 403.170, 349 403.378 M 368.459 405.067 C 367.370 406.829, 368.518 407.076, 370.573 405.521 C 372.265 404.241, 372.294 404.060, 370.809 404.032 C 369.879 404.014, 368.821 404.480, 368.459 405.067 M 377.102 406.586 C 375.233 407.914, 374.055 409, 374.484 409 C 375.439 409, 382 405.001, 382 404.418 C 382 403.540, 380.379 404.257, 377.102 406.586 M 358 406 C 358 406.550, 358.450 407, 359 407 C 359.550 407, 360 406.550, 360 406 C 360 405.450, 359.550 405, 359 405 C 358.450 405, 358 405.450, 358 406" stroke="none" fill="black" fill-rule="evenodd"/>
</svg>